<?xml version="1.0" encoding="utf-8"?>
<svg xmlns="http://www.w3.org/2000/svg" xmlns:xlink="http://www.w3.org/1999/xlink" style="margin: auto; background: none; display: block; shape-rendering: auto;" width="200px" height="200px" viewBox="0 0 100 100" preserveAspectRatio="xMidYMid">
<g transform="translate(50 50)">
<g transform="rotate(18.4474)">
<animateTransform attributeName="transform" type="rotate" values="0;45" keyTimes="0;1" dur="0.7575757575757576s" repeatCount="indefinite"></animateTransform><path d="M31.74901573277509 -9 L39.74901573277509 -9 L39.74901573277509 9 L31.74901573277509 9 A33 33 0 0 1 28.813905351322575 16.08598328996472 L28.813905351322575 16.08598328996472 L34.47075960081496 21.7428375394571 L21.742837539457103 34.47075960081495 L16.085983289964723 28.81390535132257 A33 33 0 0 1 8.999999999999998 31.74901573277509 L8.999999999999998 31.74901573277509 L8.999999999999998 39.74901573277509 L-8.999999999999995 39.74901573277509 L-8.999999999999995 31.74901573277509 A33 33 0 0 1 -16.08598328996472 28.813905351322575 L-16.08598328996472 28.813905351322575 L-21.7428375394571 34.47075960081496 L-34.47075960081495 21.742837539457106 L-28.81390535132257 16.085983289964727 A33 33 0 0 1 -31.74901573277509 9 L-31.74901573277509 9 L-39.74901573277509 9.000000000000002 L-39.74901573277509 -8.999999999999991 L-31.749015732775092 -8.999999999999993 A33 33 0 0 1 -28.813905351322575 -16.08598328996472 L-28.813905351322575 -16.08598328996472 L-34.47075960081496 -21.7428375394571 L-21.742837539457096 -34.47075960081496 L-16.085983289964716 -28.81390535132258 A33 33 0 0 1 -9.000000000000016 -31.749015732775085 L-9.000000000000016 -31.749015732775085 L-9.000000000000018 -39.749015732775085 L9.000000000000004 -39.74901573277509 L9.000000000000005 -31.74901573277509 A33 33 0 0 1 16.085983289964705 -28.813905351322585 L16.085983289964705 -28.813905351322585 L21.742837539457085 -34.470759600814965 L34.47075960081495 -21.7428375394571 L28.813905351322575 -16.085983289964716 A33 33 0 0 1 31.749015732775085 -9.000000000000018 M0 -20A20 20 0 1 0 0 20 A20 20 0 1 0 0 -20" fill="#429EA6"></path></g></g>
<!-- [ldio] generated by https://loading.io/ --></svg>